<?xml version="1.0" encoding="UTF-8"?>
<svg xmlns="http://www.w3.org/2000/svg" viewBox="0 0 566.93 583.94">
  <defs>
    <style>
      .c {
        fill: #54af32;
      }

      .d {
        fill: #fff;
      }

      .e {
        isolation: isolate;
      }

      .f {
        fill: #c6c6c6;
      }

      .g {
        mix-blend-mode: multiply;
      }
    </style>
  </defs>
  <g class="e">
    <g id="b" data-name="Isolation Mode">
      <g>
        <path class="c" d="M548.96,291.97c0,6.75-.23,13.51-.76,20.11-7.2,95.81-65.24,177.5-147.24,218.01-35.35,17.52-75.25,27.38-117.5,27.38-146.63,0-265.5-118.87-265.5-265.5S136.83,26.47,283.46,26.47s265.5,118.87,265.5,265.5Z"/>
        <g class="g">
          <path class="f" d="M548.21,312.08c-7.2,95.81-65.24,177.5-147.24,218.01l-167.57-123.12-25.11-50.75-28.52-92.7-97.63-76.08,86.25-17.98,65.46,56.89h202.92l111.44,85.72Z"/>
        </g>
        <g>
          <path class="d" d="M391.58,358.49H218.37c-4.97,0-9.37-3.23-10.86-7.97l-26.24-83.61c-1.88-6,1.45-12.38,7.45-14.26,6-1.88,12.38,1.45,14.26,7.45l23.74,75.64h156.35l4.96-16.75H246.82c-5,0-9.42-3.27-10.88-8.06l-10.43-34.16c-1.05-3.45-.41-7.19,1.74-10.09,2.15-2.9,5.54-4.61,9.15-4.61h172.09l5.31-15.17H179.49c-5,0-9.41-3.26-10.88-8.04l-14.6-47.58h-62.39c-6.28,0-11.38-5.09-11.38-11.38s5.09-11.38,11.38-11.38h70.8c5,0,9.41,3.26,10.88,8.04l14.6,47.58h241.92c3.69,0,7.15,1.79,9.28,4.79,2.13,3.01,2.68,6.86,1.46,10.34l-13.28,37.93c-1.6,4.56-5.9,7.62-10.74,7.62H251.76l3.48,11.4h148.03c3.59,0,6.97,1.69,9.12,4.57,2.15,2.88,2.81,6.6,1.79,10.04l-11.7,39.51c-1.43,4.83-5.87,8.15-10.91,8.15Z"/>
          <path class="d" d="M278.07,393.73c0,13.42-10.88,24.3-24.3,24.3s-24.31-10.88-24.31-24.3,10.88-24.3,24.31-24.3,24.3,10.88,24.3,24.3Z"/>
          <path class="d" d="M366.57,393.73c0,13.42-10.88,24.3-24.3,24.3s-24.31-10.88-24.31-24.3,10.88-24.3,24.31-24.3,24.3,10.88,24.3,24.3Z"/>
        </g>
      </g>
    </g>
  </g>
</svg>