<?xml version="1.0" encoding="UTF-8"?>
<svg id="a" data-name="Capa 1" xmlns="http://www.w3.org/2000/svg" viewBox="0 0 566.93 203">
  <defs>
    <style>
      .b {
        fill: #24cf24;
        stroke: #24cf24;
        stroke-linecap: round;
        stroke-linejoin: round;
        stroke-width: 2px;
      }
    </style>
  </defs>
  <path class="b" d="M135.34,34.61c-.58-3.54-3.93-5.33-9.95-5.33-16.11,0-34.54,12.45-50.57,34.17-14.48,19.61-23.83,42.66-23.83,58.72,0,6.05,1.33,10.76,3.95,14,2.78,3.44,7.07,5.19,12.73,5.19,27.97,0,56.28-37.83,56.56-38.21,.48-.65,1.39-.78,2.04-.3,.65,.48,.78,1.39,.3,2.04-.07,.1-7.39,9.93-18.18,19.62-14.61,13.12-28.31,19.77-40.72,19.77-6.58,0-11.63-2.11-14.99-6.27-3.05-3.77-4.6-9.1-4.6-15.83,0-16.65,9.58-40.37,24.4-60.45,16.59-22.47,35.88-35.35,52.92-35.35,4.38,0,7.71,.89,9.89,2.65,2.04,1.64,3.07,3.96,3.07,6.89,0,8.41-9.99,22.12-13.67,22.12-.8,0-1.46-.65-1.46-1.46,0-.76,.58-1.38,1.32-1.45,2.04-.81,12.02-13.02,10.8-20.51Z"/>
  <path class="b" d="M157.35,103.76c-1.42,1.57-14.13,15.38-21.43,15.38-2.33,0-4.16-.65-5.41-1.92-1.15-1.17-1.76-2.83-1.76-4.8,0-7.27,8.55-19.29,18.29-19.29,1.46,0,2.57,.24,3.4,.73,.99,.59,1.54,1.52,1.54,2.63,0,4.34-9.12,10.52-17.64,10.52-.4,0-.76-.16-1.02-.42-1.05,2.07-1.67,4.13-1.67,5.84,0,1.21,.31,2.14,.92,2.76,.69,.7,1.81,1.06,3.34,1.06,1.39,0,4.78-.92,11.77-7.07,4.12-3.63,7.47-7.32,7.5-7.35,.54-.6,1.46-.64,2.06-.1,.6,.54,.64,1.46,.1,2.06Zm-22.54,.32c5.97-.18,11.71-3.72,13.63-6.3,.61-.81,.65-1.27,.62-1.35,0,0-.36-.4-2.02-.4-4.68,0-9.29,3.75-12.23,8.04Z"/>
  <path class="b" d="M183.9,101.86c-.64,.61-15.75,14.99-24.98,14.99-2.1,0-3.73-.65-4.85-1.92-1-1.14-1.51-2.7-1.51-4.63,0-7.67,8.6-20.89,17.4-20.89,2.17,0,3.12,.97,3.52,1.78,1.31,2.6-1.47,6.68-2.36,7.87-.48,.65-1.39,.78-2.03,.3s-.78-1.39-.3-2.04c1.36-1.84,2.4-4.23,2.09-4.83-.01-.03-.25-.18-.92-.18-6.82,0-14.49,11.73-14.49,17.97,0,1.2,.26,2.11,.79,2.71,.55,.62,1.44,.93,2.67,.93,6.7,0,18.85-10.24,22.97-14.19,.58-.56,1.5-.54,2.06,.04,.56,.58,.54,1.5-.04,2.06Z"/>
  <path class="b" d="M200.27,102.42c-1.36,1.4-13.51,13.65-20.09,13.65-1.21,0-2.17-.53-2.7-1.49-.76-1.36-1.08-4,3.13-12.36,2.21-4.38,4.62-8.25,4.72-8.41,.43-.68,1.32-.89,2.01-.46,.68,.43,.89,1.32,.46,2.01-5.04,8.06-8.66,16.34-7.79,17.8,.01,0,.07,0,.17,0,4.03,0,13.18-7.83,18.01-12.77,.56-.57,1.48-.58,2.06-.02,.58,.56,.59,1.48,.03,2.06Zm-13.4-12.4c0-1.12,.91-2.03,2.03-2.03s2.03,.91,2.03,2.03-.91,2.03-2.03,2.03-2.03-.91-2.03-2.03Z"/>
  <path class="b" d="M227.5,102.19c.61,.52,.68,1.44,.16,2.05-.89,1.04-21.87,25.43-33.76,25.43-1.9,0-2.96-.9-3.5-1.66-.67-.92-1.01-2.2-1.01-3.8,0-8.15,8.38-24.23,15.56-35.53,3.73-5.87,16.48-25.02,23.97-25.02,1.93,0,2.64,1.05,2.89,1.67,.53,1.34,1.64,4.12-14.72,21.42-7.8,8.24-15.95,15.95-16.04,16.02-.31,.29-.7,.42-1.1,.39-4.51,8.58-7.65,16.54-7.65,21.05,0,1.21,.25,1.81,.45,2.09,.15,.21,.42,.46,1.15,.46,8.77,0,25.74-17.62,31.54-24.41,.52-.61,1.44-.68,2.05-.16Zm-23.51-6.26c14.3-13.93,25.03-26.4,25.12-29.35-.05,0-.11,0-.18,0-4.9,0-16.18,14.46-24.93,29.35Z"/>
  <path class="b" d="M245.32,102.42c-1.36,1.4-13.51,13.65-20.09,13.65-1.21,0-2.17-.53-2.7-1.49-.76-1.36-1.08-4,3.13-12.36,2.21-4.38,4.62-8.25,4.72-8.41,.43-.68,1.32-.89,2.01-.46,.68,.43,.89,1.32,.46,2.01-5.04,8.06-8.66,16.34-7.79,17.8,.01,0,.07,0,.17,0,4.03,0,13.18-7.83,18.01-12.77,.56-.57,1.48-.58,2.06-.02,.58,.56,.59,1.48,.03,2.06Zm-13.4-12.4c0-1.12,.91-2.03,2.03-2.03s2.03,.91,2.03,2.03-.91,2.03-2.03,2.03-2.03-.91-2.03-2.03Z"/>
  <path class="b" d="M279.44,104.29c-1.48,1.11-14.64,10.82-20.63,10.82-1.65,0-2.83-.48-3.52-1.43-.88-1.22-.65-2.73-.25-4.1-4.08,3-11.57,8.13-15.04,8.13-1.5,0-2.68-.4-3.52-1.2-.57-.54-1.24-1.52-1.24-3.17,0-6.39,10.21-17.83,20.26-17.83,2.2,0,8.91,0,8.91,6.66,0,.8-.65,1.46-1.46,1.46s-1.46-.65-1.46-1.46c0-1.9-.46-3.75-6-3.75-8.46,0-17.35,10.35-17.35,14.92,0,.49,.11,.84,.33,1.05,.28,.26,.8,.4,1.52,.4,2.51,0,10.67-5.46,15.67-9.34,.26-.2,.57-.31,.89-.31,.96,0,1.47,.51,1.69,.81,.71,.98,.3,2.21-.13,3.51-.19,.59-.71,2.17-.48,2.5,.03,.05,.33,.22,1.16,.22,4.26,0,15.08-7.39,18.88-10.24,.64-.48,1.56-.35,2.04,.29,.48,.64,.35,1.55-.29,2.04Z"/>
  <path class="b" d="M406.55,37.2c0,5.52-2.36,12.17-6.48,18.25-3.09,4.57-7.8,9.45-11.73,9.45-.8,0-1.46-.65-1.46-1.46s.65-1.46,1.46-1.46c1.82,0,5.51-2.56,9.32-8.18,3.74-5.52,5.98-11.74,5.98-16.62,0-7.89-5.46-11.89-16.24-11.89-9.03,0-26.77,3.62-44.19,27.88-11.13,15.51-18.33,34.93-18.33,49.47,0,5.89,1.23,10.72,3.55,13.96,2.46,3.42,6.16,5.16,11.02,5.16,5.76,0,14.07-4.64,24.04-13.42,7.67-6.76,13.61-13.61,13.67-13.68,.28-.32,.68-.5,1.1-.5,.46,0,1.58,.17,2.08,1.75,.2,.62,.29,1.45,.29,2.53,0,7.9-5.16,29.13-12.84,48.15-6.87,17.02-17.72,37.31-30.38,37.31-1.84,0-3.27-.6-4.24-1.77-.86-1.04-1.3-2.5-1.3-4.33,0-7.67,7.44-20.86,13.81-29.82,3.32-4.67,14.76-19.91,22.64-19.91,.8,0,1.46,.65,1.46,1.46s-.65,1.46-1.46,1.46c-9.09,0-33.54,34.13-33.54,46.82,0,1.12,.22,1.97,.63,2.48,.15,.18,.59,.71,1.99,.71,5.54,0,11.75-5.4,17.98-15.61,13.69-22.47,22.45-58.41,22.39-67.03-5.66,6.23-24.96,26.32-38.32,26.32-11.11,0-17.48-8.03-17.48-22.03,0-15.11,7.41-35.19,18.88-51.16,13.47-18.76,30-29.09,46.56-29.09s19.15,9.27,19.15,14.79Z"/>
  <path class="b" d="M426.95,104.29c-1.48,1.11-14.64,10.82-20.63,10.82-1.65,0-2.83-.48-3.52-1.43-.88-1.22-.65-2.73-.25-4.1-4.08,3-11.57,8.13-15.04,8.13-1.5,0-2.68-.4-3.52-1.2-.57-.54-1.24-1.52-1.24-3.17,0-6.39,10.21-17.83,20.26-17.83,2.2,0,8.91,0,8.91,6.66,0,.8-.65,1.46-1.46,1.46s-1.46-.65-1.46-1.46c0-1.9-.46-3.75-6-3.75-8.46,0-17.35,10.35-17.35,14.92,0,.49,.11,.84,.33,1.05,.28,.26,.8,.4,1.52,.4,2.51,0,10.67-5.46,15.67-9.34,.26-.2,.57-.31,.89-.31,.96,0,1.47,.51,1.69,.81,.71,.98,.3,2.21-.13,3.51-.2,.59-.71,2.17-.48,2.5,.03,.05,.33,.22,1.16,.22,4.26,0,15.08-7.39,18.88-10.24,.64-.48,1.56-.35,2.04,.29,.48,.64,.35,1.55-.29,2.04Z"/>
  <path class="b" d="M451.33,103.92c-.17,.12-4.15,2.93-8.18,2.93-1.11,0-2.01-.35-2.67-1.04-1.25-1.32-1.14-3.42-1.04-5.1,.02-.38,.05-.87,.04-1.26-3.94,1.77-17.95,16.71-18.3,19.76,0,.47-.23,.88-.58,1.14-.15,.64-.73,1.11-1.41,1.11-.56,0-1.06-.28-1.36-.76-.76-1.23-.25-2.84,6.92-17.11,1.73-3.45,3.68-7.33,4.07-8.42,0-.01,0-.03,0-.04,0-.8,.65-1.46,1.46-1.46,.5,0,1,.28,1.27,.71,.58,.94,.6,.97-4.19,10.52-.48,.96-1.02,2.04-1.59,3.17,.63-.7,1.21-1.33,1.68-1.83,3.46-3.69,9.7-9.87,12.56-9.87,.64,0,1.21,.23,1.63,.68,.86,.91,.78,2.32,.7,3.82-.05,.95-.14,2.53,.25,2.94,.11,.12,.4,.14,.56,.14,2.58,0,5.56-1.73,6.49-2.39,.65-.47,1.56-.32,2.03,.34,.47,.65,.32,1.56-.34,2.03Z"/>
  <path class="b" d="M478.37,101.86c-.64,.61-15.75,14.99-24.98,14.99-2.1,0-3.73-.65-4.85-1.92-1-1.14-1.51-2.7-1.51-4.63,0-7.67,8.6-20.89,17.4-20.89,2.17,0,3.12,.97,3.52,1.78,1.31,2.6-1.47,6.68-2.36,7.87-.48,.65-1.39,.78-2.03,.3-.65-.48-.78-1.39-.3-2.04,1.36-1.84,2.4-4.23,2.09-4.83-.01-.03-.25-.18-.93-.18-6.82,0-14.49,11.73-14.49,17.97,0,1.2,.26,2.11,.79,2.71,.54,.62,1.44,.93,2.67,.93,6.7,0,18.85-10.24,22.97-14.19,.58-.56,1.5-.54,2.06,.04,.56,.58,.54,1.5-.04,2.06Z"/>
  <path class="b" d="M494.74,102.42c-1.36,1.4-13.51,13.65-20.09,13.65-1.21,0-2.17-.53-2.7-1.49-.76-1.36-1.08-4,3.13-12.36,2.21-4.38,4.62-8.25,4.72-8.41,.43-.68,1.32-.89,2-.46,.68,.43,.89,1.32,.46,2.01-5.04,8.06-8.66,16.34-7.79,17.8,.01,0,.07,0,.17,0,4.03,0,13.18-7.83,18-12.77,.56-.57,1.48-.58,2.06-.02,.58,.56,.59,1.48,.03,2.06Zm-13.4-12.4c0-1.12,.91-2.03,2.03-2.03s2.03,.91,2.03,2.03-.91,2.03-2.03,2.03-2.03-.91-2.03-2.03Z"/>
  <path class="b" d="M528.87,104.29c-1.48,1.11-14.64,10.82-20.63,10.82-1.65,0-2.83-.48-3.52-1.43-.88-1.22-.65-2.73-.25-4.1-4.08,3-11.57,8.13-15.04,8.13-1.5,0-2.68-.4-3.52-1.2-.57-.54-1.24-1.52-1.24-3.17,0-6.39,10.21-17.83,20.26-17.83,2.2,0,8.91,0,8.91,6.66,0,.8-.65,1.46-1.46,1.46s-1.46-.65-1.46-1.46c0-1.9-.46-3.75-6-3.75-8.46,0-17.35,10.35-17.35,14.92,0,.49,.11,.84,.33,1.05,.28,.26,.8,.4,1.52,.4,2.51,0,10.67-5.46,15.67-9.34,.26-.2,.57-.31,.89-.31,.96,0,1.47,.51,1.69,.81,.71,.98,.3,2.21-.13,3.51-.2,.59-.71,2.17-.48,2.5,.03,.05,.33,.22,1.16,.22,4.26,0,15.08-7.39,18.88-10.24,.64-.48,1.56-.35,2.04,.29,.48,.64,.35,1.55-.29,2.04Z"/>
</svg>